{"title":"TRON Legacy 2010 TS XViD - IMAGiNE","uid":6057099,"size":1485513774,"categoryP":"video","categoryS":"movies","magnet":"?xt=urn:btih:d4b33bb03c878b0a21c448f4847f3263c7373f30&amp;dn=TRON+Legacy+2010+TS+XViD+-+IMAGiNE&amp;tr=udp%3A%2F%2Ftracker.openbittorrent.com%3A80&amp;tr=udp%3A%2F%2Fopen.demonii.com%3A1337&amp;tr=udp%3A%2F%2Ftracker.coppersurfer.tk%3A6969&amp;tr=udp%3A%2F%2Fexodus.desync.com%3A6969","seeders":0,"leechers":0,"uploader":"LoStXxTrAgIcXx","files":-1,"time":1292952252,"description":"TRON Legacy 2010 TS XViD - IMAGiNE\n\nscreans &lt;a href=&quot;\nhttp://bayimg.com/KaBEfaADj&quot; rel=&quot;nofollow&quot; target=&quot;_NEW&quot;&gt;\nhttp://bayimg.com/KaBEfaADj&lt;/a&gt;\nhttp://bayimg.com/KAbEgaADJ\n\nRipper: IMAGiNE IMDB Rating.......:7.7/10\nVideo Codec: XVID Release Date......:21/12/10\nAudio Codec.......:MP3 Theatre Date......:17/12/10\nAudio Bitrate.....:128 Runtime.......:1h 58mn\nSubtitles.........:NIL Language..........:ENGLISH\nResolution...... 720 x 304\n\n\nVideo\nID: 0\nFormat: MPEG-4 Visual\nFormat profile: Advanced Simple@L5\nFormat settings, BVOP: Yes\nFormat settings, QPel: No\nFormat settings, GMC: No warppoints\nFormat settings, Matrix: Default (H.263)\nMuxing mode: Packed bitstream\nCodec ID: XVID\nCodec ID/Hint: XviD\nDuration: 1h 58mn\nBit rate: 1 513 Kbps\nWidth: 720 pixels\nHeight: 304 pixels\nDisplay aspect ratio: 2.35:1\nFrame rate: 23.976 fps\nColor space: YUV\nChroma subsampling: 4:2:0\nBit depth: 8 bits\nScan type: Progressive\nBits/(Pixel*Frame): 0.288\nStream size: 1.25 GiB (92%)\nWriting library: XviD 1.1.2 (UTC 2006-11-01)\n\nAudio\nID: 1\nFormat: MPEG Audio\nFormat version: Version 1\nFormat profile: Layer 3\nCodec ID: 55\nCodec ID/Hint: MP3\nDuration: 1h 58mn\nBit rate mode: Constant\nBit rate: 128 Kbps\nChannel(s): 2 channels\nSampling rate: 44.1 KHz\nStream size: 108 MiB (8%)\nAlignment: Split accross interleaves\nInterleave, duration: 42 ms (1.00 video frame)\nInterleave, preload duration: 500 ms SOURCES:","torrent":{"xt":"urn:btih:d4b33bb03c878b0a21c448f4847f3263c7373f30","amp;dn":"TRON+Legacy+2010+TS+XViD+-+IMAGiNE","amp;tr":["udp%3A%2F%2Ftracker.openbittorrent.com%3A80","udp%3A%2F%2Fopen.demonii.com%3A1337","udp%3A%2F%2Ftracker.coppersurfer.tk%3A6969","udp%3A%2F%2Fexodus.desync.com%3A6969"],"infoHash":"d4b33bb03c878b0a21c448f4847f3263c7373f30","infoHashBuffer":{"type":"Buffer","data":[212,179,59,176,60,135,139,10,33,196,72,244,132,127,50,99,199,55,63,48]},"announce":[],"urlList":[]}}